<svg xmlns="http://www.w3.org/2000/svg" aria-hidden="true" style="position: absolute; width: 0; height: 0; overflow: hidden;" version="1.1" xmlns="http://www.w3.org/2000/svg" xmlns:xlink="http://www.w3.org/1999/xlink">
    <defs>
        <symbol id="google" viewBox="0 0 32 32">
            <path fill="#4285f4" style="fill: var(--color1, #4285f4)" d="M31.36 16.364c0-1.135-0.102-2.225-0.291-3.273h-15.069v6.189h8.611c-0.371 2-1.498 3.695-3.193 4.829v4.015h5.171c3.026-2.785 4.771-6.887 4.771-11.76z"></path>
            <path fill="#34a853" style="fill: var(--color2, #34a853)" d="M15.997 32c4.32 0 7.942-1.433 10.589-3.876l-5.171-4.014c-1.433 0.96-3.265 1.527-5.418 1.527-4.167 0-7.695-2.815-8.953-6.596h-5.345v4.145c2.633 5.229 8.044 8.815 14.298 8.815z"></path>
            <path fill="#fbbc05" style="fill: var(--color3, #fbbc05)" d="M7.047 19.040c-0.32-0.96-0.502-1.985-0.502-3.040s0.182-2.080 0.502-3.040v-4.145h-5.345c-1.084 2.16-1.702 4.604-1.702 7.185s0.618 5.026 1.702 7.186l5.345-4.146z"></path>
            <path fill="#ea4335" style="fill: var(--color4, #ea4335)" d="M15.997 6.364c2.349 0 4.458 0.807 6.116 2.393l4.589-4.589c-2.771-2.582-6.393-4.167-10.705-4.167-6.255 0-11.665 3.585-14.298 8.815l5.345 4.145c1.258-3.782 4.785-6.596 8.953-6.596z"></path>
        </symbol>

        <symbol id="facebook" viewBox="0 0 32 32">
            <path fill="#1877f2" style="fill: var(--color5, #1877f2)" d="M32 16c0-8.837-7.129-16-15.924-16s-15.924 7.163-15.924 16c0 7.986 5.823 14.605 13.436 15.806v-11.181h-4.043v-4.625h4.043v-3.525c0-4.010 2.377-6.225 6.015-6.225 1.742 0 3.564 0.313 3.564 0.313v3.938h-2.008c-1.978 0-2.595 1.233-2.595 2.499v3.001h4.417l-0.706 4.625h-3.71v11.181c7.613-1.2 13.436-7.82 13.436-15.806z"></path>
        </symbol>
    </defs>
</svg>
